<svg width="48" height="49" viewBox="0 0 48 49" fill="none" xmlns="http://www.w3.org/2000/svg">
<path d="M24 28.7385C25.1 28.7385 26.0417 28.3468 26.825 27.5635C27.6083 26.7801 28 25.8385 28 24.7385C28 23.6385 27.6083 22.6968 26.825 21.9135C26.0417 21.1301 25.1 20.7385 24 20.7385C22.9 20.7385 21.9583 21.1301 21.175 21.9135C20.3917 22.6968 20 23.6385 20 24.7385C20 25.8385 20.3917 26.7801 21.175 27.5635C21.9583 28.3468 22.9 28.7385 24 28.7385ZM16 36.7385H32V35.5885C32 34.7885 31.7833 34.0551 31.35 33.3885C30.9167 32.7218 30.3167 32.2218 29.55 31.8885C28.6833 31.5218 27.7917 31.2385 26.875 31.0385C25.9583 30.8385 25 30.7385 24 30.7385C23 30.7385 22.0417 30.8385 21.125 31.0385C20.2083 31.2385 19.3167 31.5218 18.45 31.8885C17.6833 32.2218 17.0833 32.7218 16.65 33.3885C16.2167 34.0551 16 34.7885 16 35.5885V36.7385ZM37 44.7385H11C10.2 44.7385 9.5 44.4385 8.9 43.8385C8.3 43.2385 8 42.5385 8 41.7385V7.73846C8 6.93846 8.3 6.23846 8.9 5.63846C9.5 5.03846 10.2 4.73846 11 4.73846H28.05L40 16.6885V41.7385C40 42.5385 39.7 43.2385 39.1 43.8385C38.5 44.4385 37.8 44.7385 37 44.7385ZM37 41.7385V18.0385L26.7 7.73846H11V41.7385H37ZM11 41.7385V7.73846V41.7385Z" fill="#060348"/>
</svg>
