<svg width="40" height="40" viewBox="0 0 40 40" fill="none" xmlns="http://www.w3.org/2000/svg">
<path d="M20 11.885C18.9343 11.885 17.8791 12.0949 16.8945 12.5027C15.91 12.9105 15.0154 13.5083 14.2618 14.2618C13.5083 15.0154 12.9105 15.91 12.5027 16.8945C12.0949 17.8791 11.885 18.9343 11.885 20C11.885 21.0657 12.0949 22.1209 12.5027 23.1055C12.9105 24.09 13.5083 24.9846 14.2618 25.7382C15.0154 26.4917 15.91 27.0895 16.8945 27.4973C17.8791 27.9051 18.9343 28.115 20 28.115C22.1522 28.115 24.2163 27.26 25.7382 25.7382C27.26 24.2163 28.115 22.1522 28.115 20C28.115 17.8478 27.26 15.7837 25.7382 14.2618C24.2163 12.74 22.1522 11.885 20 11.885V11.885ZM14.385 20C14.385 18.5108 14.9766 17.0826 16.0296 16.0296C17.0826 14.9766 18.5108 14.385 20 14.385C21.4892 14.385 22.9174 14.9766 23.9704 16.0296C25.0234 17.0826 25.615 18.5108 25.615 20C25.615 21.4892 25.0234 22.9174 23.9704 23.9704C22.9174 25.0234 21.4892 25.615 20 25.615C18.5108 25.615 17.0826 25.0234 16.0296 23.9704C14.9766 22.9174 14.385 21.4892 14.385 20Z" fill="#060348"/>
<path d="M24.49 3.35747C23.1725 -1.11753 16.8275 -1.11753 15.51 3.35747L15.275 4.15497C15.183 4.46735 15.0222 4.75518 14.8045 4.99737C14.5868 5.23955 14.3177 5.42995 14.0169 5.5546C13.716 5.67925 13.3911 5.735 13.0659 5.71777C12.7407 5.70053 12.4235 5.61073 12.1375 5.45497L11.4075 5.05497C7.3075 2.82497 2.825 7.30997 5.0575 11.4075L5.455 12.1375C5.61076 12.4235 5.70056 12.7407 5.7178 13.0659C5.73504 13.391 5.67929 13.716 5.55463 14.0168C5.42998 14.3177 5.23958 14.5868 4.9974 14.8045C4.75521 15.0222 4.46738 15.183 4.155 15.275L3.3575 15.51C-1.1175 16.8275 -1.1175 23.1725 3.3575 24.49L4.155 24.725C4.46738 24.817 4.75521 24.9777 4.9974 25.1954C5.23958 25.4131 5.42998 25.6823 5.55463 25.9831C5.67929 26.284 5.73504 26.6089 5.7178 26.9341C5.70056 27.2593 5.61076 27.5765 5.455 27.8625L5.055 28.5925C2.825 32.6925 7.3075 37.1775 11.4075 34.9425L12.1375 34.545C12.4235 34.3892 12.7407 34.2994 13.0659 34.2822C13.3911 34.2649 13.716 34.3207 14.0169 34.4453C14.3177 34.57 14.5868 34.7604 14.8045 35.0026C15.0222 35.2448 15.183 35.5326 15.275 35.845L15.51 36.6425C16.8275 41.1175 23.1725 41.1175 24.49 36.6425L24.725 35.845C24.817 35.5326 24.9778 35.2448 25.1955 35.0026C25.4132 34.7604 25.6823 34.57 25.9831 34.4453C26.284 34.3207 26.6089 34.2649 26.9341 34.2822C27.2593 34.2994 27.5765 34.3892 27.8625 34.545L28.5925 34.945C32.6925 37.1775 37.1775 32.69 34.9425 28.5925L34.545 27.8625C34.3892 27.5765 34.2994 27.2593 34.2822 26.9341C34.265 26.6089 34.3207 26.284 34.4454 25.9831C34.57 25.6823 34.7604 25.4131 35.0026 25.1954C35.2448 24.9777 35.5326 24.817 35.845 24.725L36.6425 24.49C41.1175 23.1725 41.1175 16.8275 36.6425 15.51L35.845 15.275C35.5326 15.183 35.2448 15.0222 35.0026 14.8045C34.7604 14.5868 34.57 14.3177 34.4454 14.0168C34.3207 13.716 34.265 13.391 34.2822 13.0659C34.2994 12.7407 34.3892 12.4235 34.545 12.1375L34.945 11.4075C37.1775 7.30747 32.69 2.82497 28.5925 5.05747L27.8625 5.45497C27.5765 5.61073 27.2593 5.70053 26.9341 5.71777C26.6089 5.735 26.284 5.67925 25.9831 5.5546C25.6823 5.42995 25.4132 5.23955 25.1955 4.99737C24.9778 4.75518 24.817 4.46735 24.725 4.15497L24.49 3.35747V3.35747ZM17.9075 4.06497C18.5225 1.97747 21.4775 1.97747 22.0925 4.06497L22.3275 4.86247C22.5251 5.53268 22.8701 6.15019 23.3373 6.66972C23.8045 7.18925 24.3821 7.59763 25.0277 7.86492C25.6733 8.13221 26.3705 8.25164 27.0682 8.21445C27.7659 8.17725 28.4465 7.98438 29.06 7.64997L29.7875 7.24997C31.6975 6.21247 33.7875 8.29997 32.7475 10.2125L32.35 10.9425C32.0161 11.556 31.8237 12.2365 31.7869 12.9341C31.7501 13.6317 31.8699 14.3286 32.1374 14.9739C32.4049 15.6192 32.8134 16.1965 33.3329 16.6634C33.8525 17.1303 34.4699 17.4751 35.14 17.6725L35.935 17.9075C38.0225 18.5225 38.0225 21.4775 35.935 22.0925L35.1375 22.3275C34.4673 22.525 33.8498 22.8701 33.3303 23.3373C32.8107 23.8045 32.4023 24.3821 32.1351 25.0277C31.8678 25.6732 31.7483 26.3704 31.7855 27.0682C31.8227 27.7659 32.0156 28.4465 32.35 29.06L32.75 29.7875C33.7875 31.6975 31.7 33.7875 29.7875 32.7475L29.06 32.35C28.4463 32.0156 27.7656 31.8228 27.0677 31.7858C26.3699 31.7487 25.6726 31.8684 25.027 32.1359C24.3813 32.4035 23.8038 32.8121 23.3367 33.332C22.8696 33.8518 22.5248 34.4695 22.3275 35.14L22.0925 35.935C21.4775 38.0225 18.5225 38.0225 17.9075 35.935L17.6725 35.1375C17.4749 34.4676 17.1299 33.8504 16.6628 33.3312C16.1958 32.8119 15.6185 32.4037 14.9732 32.1364C14.328 31.8692 13.6311 31.7496 12.9337 31.7866C12.2362 31.8235 11.5559 32.016 10.9425 32.35L10.2125 32.75C8.3025 33.7875 6.2125 31.7 7.2525 29.7875L7.65 29.06C7.98488 28.4464 8.17813 27.7656 8.21557 27.0676C8.25301 26.3695 8.13369 25.672 7.86636 25.0261C7.59904 24.3802 7.19049 23.8023 6.6707 23.3349C6.15091 22.8675 5.53306 22.5224 4.8625 22.325L4.065 22.09C1.9775 21.475 1.9775 18.52 4.065 17.905L4.8625 17.67C5.53202 17.4722 6.14885 17.1273 6.66786 16.6604C7.18686 16.1936 7.59491 15.6165 7.86213 14.9716C8.12936 14.3267 8.249 13.6302 8.21229 12.933C8.17559 12.2359 7.98347 11.5558 7.65 10.9425L7.25 10.2125C6.2125 8.30247 8.3 6.21247 10.2125 7.25247L10.9425 7.64997C11.5559 7.98391 12.2362 8.1764 12.9337 8.21335C13.6311 8.2503 14.328 8.13077 14.9732 7.86351C15.6185 7.59625 16.1958 7.18804 16.6628 6.66877C17.1299 6.1495 17.4749 5.53233 17.6725 4.86247L17.9075 4.06497V4.06497Z" fill="#060348"/>
</svg>
