<svg width="40" height="40" viewBox="0 0 40 40" fill="none" xmlns="http://www.w3.org/2000/svg">
<path d="M31.24 20C31.242 21.6954 30.8599 23.3692 30.1226 24.8959C29.3852 26.4226 28.3117 27.7625 26.9825 28.815L23.7425 21.25L31.14 18.475C31.2075 18.975 31.24 19.4825 31.24 20V20Z" fill="#060348"/>
<path d="M40 20C40 25.3043 37.8929 30.3914 34.1421 34.1421C30.3914 37.8929 25.3043 40 20 40C14.6957 40 9.60859 37.8929 5.85786 34.1421C2.10714 30.3914 0 25.3043 0 20C0 14.6957 2.10714 9.60859 5.85786 5.85786C9.60859 2.10714 14.6957 0 20 0C25.3043 0 30.3914 2.10714 34.1421 5.85786C37.8929 9.60859 40 14.6957 40 20V20ZM37.5 20C37.4988 17.3467 36.8942 14.7284 35.7321 12.3431C34.57 9.9578 32.8806 7.86801 30.7919 6.23176C28.7032 4.59551 26.2697 3.45564 23.6755 2.89835C21.0814 2.34107 18.3945 2.38097 15.818 3.01504C13.2416 3.6491 10.8431 4.86072 8.80382 6.55827C6.76459 8.25582 5.13806 10.3949 4.04725 12.8136C2.95644 15.2323 2.42991 17.8674 2.50748 20.5196C2.58505 23.1718 3.26469 25.7717 4.495 28.1225L9.465 23.98C8.53624 21.5308 8.49122 18.8343 9.33771 16.3554C10.1842 13.8766 11.8691 11.7709 14.102 10.4013C16.3348 9.03175 18.9755 8.48425 21.5688 8.85323C24.1621 9.2222 26.5453 10.4845 28.3075 12.4225L18.7425 16.25L21.2425 22.5L24.575 30.275C23.175 30.9025 21.625 31.25 19.9925 31.25C18.6329 31.2514 17.2843 31.0057 16.0125 30.525L11.8675 35.5C14.535 36.9 17.5187 37.5876 20.5298 37.4964C23.5409 37.4052 26.4775 36.5382 29.0554 34.9794C31.6332 33.4206 33.765 31.2227 35.2444 28.5985C36.7238 25.9742 37.5008 23.0125 37.5 20V20ZM16.7625 20.3475C16.8353 20.239 16.8723 20.1103 16.8682 19.9797C16.8641 19.8491 16.8191 19.723 16.7396 19.6193C16.6602 19.5155 16.5502 19.4393 16.4251 19.4013C16.3001 19.3633 16.1663 19.3655 16.0425 19.4075L12.2925 20.6575L12.69 21.8425L14.71 21.1675L13.2225 23.4025C13.1501 23.5109 13.1134 23.6391 13.1176 23.7693C13.1217 23.8996 13.1664 24.0253 13.2454 24.1288C13.3245 24.2324 13.4339 24.3087 13.5585 24.347C13.683 24.3853 13.8164 24.3837 13.94 24.3425L15.96 23.6675L14.4725 25.9025C14.4001 26.0109 14.3634 26.1391 14.3676 26.2693C14.3717 26.3996 14.4164 26.5253 14.4954 26.6288C14.5745 26.7324 14.6839 26.8087 14.8085 26.847C14.933 26.8853 15.0664 26.8837 15.19 26.8425L18.94 25.5925L18.5425 24.4075L16.5225 25.0825L18.0125 22.8475C18.0853 22.739 18.1223 22.6103 18.1182 22.4797C18.1141 22.3491 18.0691 22.223 17.9896 22.1193C17.9102 22.0155 17.8002 21.9393 17.6751 21.9013C17.5501 21.8633 17.4163 21.8655 17.2925 21.9075L15.2725 22.5825L16.7625 20.3475V20.3475Z" fill="#060348"/>
</svg>
